<?xml version="1.0" encoding="utf-8"?>
<!-- Generator: Adobe Illustrator 24.3.0, SVG Export Plug-In . SVG Version: 6.00 Build 0)  -->
<svg version="1.1" id="Layer_1" xmlns="http://www.w3.org/2000/svg" xmlns:xlink="http://www.w3.org/1999/xlink" x="0px" y="0px"
	 viewBox="0 0 64 64" style="enable-background:new 0 0 64 64;" xml:space="preserve">
<style type="text/css">
	.st0{fill:#E8E8E8;}
	.st1{fill:#FB3449;}
	.st2{fill:#D1D3D3;}
</style>
<g>
	<g>
		<polygon class="st0" points="-283.3,398.5 -337,398.5 -337,485.7 -268.7,485.7 -268.7,413.1 		"/>
		<polygon class="st1" points="-281,405.8 -337,405.8 -337,398.5 -283.3,398.5 		"/>
	</g>
	<polygon class="st2" points="-283.2,413.1 -268.6,413.1 -283.2,398.5 	"/>
</g>
<g>
	<g>
		<polygon class="st0" points="44.1,1.6 6.6,1.6 6.6,62.4 54.2,62.4 54.2,11.7 		"/>
		<polygon class="st1" points="45.7,6.6 6.6,6.6 6.6,1.6 44.1,1.6 		"/>
	</g>
	<polygon class="st2" points="44.1,11.7 54.3,11.7 44.1,1.6 	"/>
</g>
<g>
	<path d="M38.2,20.6l-16.1,0v0.7h16.1V20.6z M38.2,17.7L22,17.6v0.7l16.1,0.1V17.7z M38.2,14.7H26.9v0.7l11.3,0V14.7z M23.2,13.5
		c-0.8,0-1.5,0.7-1.5,1.5c0,0.8,0.7,1.5,1.5,1.5c0.8,0,1.5-0.7,1.5-1.5C24.6,14.2,24,13.5,23.2,13.5z M39.1,25H20.6
		c-0.8,0-1.5-0.7-1.5-1.5V11.7c0-0.8,0.7-1.5,1.5-1.5h18.6c0.8,0,1.5,0.7,1.5,1.5v11.9C40.6,24.4,39.9,25,39.1,25z"/>
</g>
<g>
	<path d="M38.5,36.8l-16.1,0v0.7h16.1V36.8z M38.5,33.9l-16.1-0.1v0.7l16.1,0.1V33.9z M38.5,30.9H27.2v0.7l11.3,0V30.9z M23.5,29.8
		c-0.8,0-1.5,0.7-1.5,1.5c0,0.8,0.7,1.5,1.5,1.5s1.5-0.7,1.5-1.5C25,30.4,24.3,29.8,23.5,29.8z M39.5,41.3H20.9
		c-0.8,0-1.5-0.7-1.5-1.5V27.9c0-0.8,0.7-1.5,1.5-1.5h18.6c0.8,0,1.5,0.7,1.5,1.5v11.9C41,40.6,40.3,41.3,39.5,41.3z"/>
</g>
</svg>
