<?xml version="1.0" encoding="iso-8859-1"?>
<!-- Uploaded to: SVG Repo, www.svgrepo.com, Generator: SVG Repo Mixer Tools -->
<svg version="1.1" id="Layer_1" xmlns="http://www.w3.org/2000/svg" xmlns:xlink="http://www.w3.org/1999/xlink" 
	 viewBox="0 0 512 512" xml:space="preserve">
<path style="fill:#D7D5D9;" d="M387.05,7.612H36.747c-5.582,0-10.15,4.567-10.15,10.15v476.476c0,5.582,4.567,10.15,10.15,10.15
	H387.05l96.954-30.449V27.912L387.05,7.612z"/>
<g>
	<polygon style="fill:#3E3B43;" points="484.004,473.939 387.05,504.388 387.05,7.612 484.004,27.912 	"/>
	<path style="fill:#3E3B43;" d="M37.445,7.612c-5.582,0-10.15,4.567-10.15,10.15v476.476c0,5.582,4.567,10.15,10.15,10.15h52.926
		V7.612H37.445z"/>
</g>
<g>
	<circle style="fill:#FF3F62;" cx="440.758" cy="422.946" r="17.731"/>
	<circle style="fill:#FF3F62;" cx="440.758" cy="362.86" r="17.731"/>
	<circle style="fill:#FF3F62;" cx="440.758" cy="302.977" r="17.731"/>
</g>
<rect x="142.094" y="115.696" style="fill:#FFF5CC;" width="192.833" height="278.121"/>
<rect x="423.026" y="60.411" style="fill:#DFDFE2;" width="26.792" height="183.597"/>
<rect x="112.437" y="423.991" style="fill:#4675CF;" width="249.59" height="35.95"/>
<g>
	<path style="fill:#3E3B43;" d="M90.372,406.302c19.698,0,35.667,15.968,35.667,35.667s-15.968,35.667-35.667,35.667V406.302z"/>
	<path style="fill:#3E3B43;" d="M388.877,477.357c-19.698,0-35.667-15.968-35.667-35.667s15.968-35.667,35.667-35.667V477.357z"/>
</g>
<rect x="90.371" y="262.988" style="opacity:0.35;fill:#FFFFFF;enable-background:new    ;" width="296.674" height="73.991"/>
<g>
	<rect x="366.422" y="7.612" style="opacity:0.16;fill:#3E3B43;enable-background:new    ;" width="20.629" height="496.775"/>
	<rect x="90.371" y="7.612" style="opacity:0.16;fill:#3E3B43;enable-background:new    ;" width="20.629" height="496.775"/>
</g>
<g>
	<path style="fill:#231F20;" d="M486.263,20.461L389.313,0.162c-0.27-0.057-0.545-0.098-0.825-0.125
		c-0.08-0.008-0.16-0.007-0.242-0.012C388.081,0.014,387.917,0,387.748,0H37.446c-9.793,0-17.762,7.968-17.762,17.762v476.476
		c0,9.793,7.968,17.762,17.762,17.762h350.303h0.001l0,0c0,0,0.001,0,0.002,0c0.35,0,0.693-0.032,1.031-0.078
		c0.075-0.01,0.149-0.021,0.223-0.034c0.359-0.06,0.711-0.138,1.052-0.247l96.926-30.44c3.173-0.996,5.332-3.937,5.332-7.262V27.912
		C492.315,24.308,489.789,21.2,486.263,20.461z M97.984,414.971c11.781,3.327,20.443,14.166,20.443,26.997
		c0,12.831-8.662,23.67-20.443,26.997V414.971z M82.759,496.776H37.446c-1.375,0-2.537-1.162-2.537-2.537V17.762
		c0-1.375,1.162-2.537,2.537-2.537h45.313V496.776z M380.136,496.776H97.984v-12.212c11.153-1.988,20.84-8.255,27.292-17.046
		c0.251,0.025,0.505,0.039,0.763,0.039h224.876c0.258,0,0.513-0.013,0.763-0.039c6.676,9.097,16.814,15.502,28.459,17.248v12.01
		H380.136z M255.301,434.078h-121.65v-2.473h209.651v20.726H133.652v-3.029h121.65c4.205,0,7.612-3.408,7.612-7.612
		C262.913,437.485,259.506,434.078,255.301,434.078z M380.136,469.267c-12.371-2.921-21.61-14.048-21.61-27.298
		c0-13.25,9.238-24.377,21.61-27.298L380.136,469.267L380.136,469.267z M380.136,399.171c-11.646,1.747-21.782,8.151-28.46,17.248
		c-0.251-0.025-0.505-0.039-0.762-0.039H126.038c-0.258,0-0.512,0.013-0.762,0.039c-6.452-8.792-16.139-15.058-27.292-17.046V15.224
		h282.152V399.171z M477.09,468.35l-81.729,25.667V16.983l81.729,17.111V468.35z"/>
	<path style="fill:#231F20;" d="M440.762,448.288c13.975,0,25.345-11.369,25.345-25.344s-11.37-25.344-25.345-25.344
		s-25.344,11.369-25.344,25.344S426.787,448.288,440.762,448.288z M440.762,412.826c5.58,0,10.12,4.539,10.12,10.119
		s-4.54,10.119-10.12,10.119c-5.579,0-10.119-4.539-10.119-10.119S435.182,412.826,440.762,412.826z"/>
	<path style="fill:#231F20;" d="M440.762,387.39c13.975,0,25.345-11.369,25.345-25.344s-11.37-25.344-25.345-25.344
		s-25.344,11.369-25.344,25.344S426.787,387.39,440.762,387.39z M440.762,351.928c5.58,0,10.12,4.539,10.12,10.119
		s-4.54,10.119-10.12,10.119c-5.579,0-10.119-4.539-10.119-10.119S435.182,351.928,440.762,351.928z"/>
	<path style="fill:#231F20;" d="M440.762,327.507c13.975,0,25.345-11.369,25.345-25.344s-11.37-25.344-25.345-25.344
		s-25.344,11.369-25.344,25.344S426.787,327.507,440.762,327.507z M440.762,292.045c5.58,0,10.12,4.539,10.12,10.119
		s-4.54,10.119-10.12,10.119c-5.579,0-10.119-4.539-10.119-10.119S435.182,292.045,440.762,292.045z"/>
	<path style="fill:#231F20;" d="M142.099,401.426h192.834c4.205,0,7.612-3.408,7.612-7.612V115.692c0-4.204-3.407-7.612-7.612-7.612
		H142.099c-4.205,0-7.612,3.408-7.612,7.612v278.122C134.487,398.017,137.894,401.426,142.099,401.426z M149.711,123.304h177.61
		v262.897h-177.61V123.304z"/>
	<path style="fill:#231F20;" d="M298.194,158.677H179.926c-4.205,0-7.612,3.408-7.612,7.612c0,4.204,3.407,7.612,7.612,7.612
		h118.267c4.205,0,7.612-3.408,7.612-7.612C305.805,162.085,302.398,158.677,298.194,158.677z"/>
	<path style="fill:#231F20;" d="M298.194,188.415h-72.517c-4.205,0-7.612,3.408-7.612,7.612s3.407,7.612,7.612,7.612h72.517
		c4.205,0,7.612-3.408,7.612-7.612S302.398,188.415,298.194,188.415z"/>
	<path style="fill:#231F20;" d="M179.926,233.378h58.591c4.205,0,7.612-3.408,7.612-7.612c0-4.204-3.407-7.612-7.612-7.612h-58.591
		c-4.205,0-7.612,3.408-7.612,7.612C172.314,229.97,175.722,233.378,179.926,233.378z"/>
	<path style="fill:#231F20;" d="M298.194,218.153h-37.6c-4.205,0-7.612,3.408-7.612,7.612c0,4.204,3.407,7.612,7.612,7.612h37.6
		c4.205,0,7.612-3.408,7.612-7.612C305.806,221.562,302.398,218.153,298.194,218.153z"/>
	<path style="fill:#231F20;" d="M298.194,247.892H179.926c-4.205,0-7.612,3.408-7.612,7.612c0,4.204,3.407,7.612,7.612,7.612
		h118.267c4.205,0,7.612-3.408,7.612-7.612C305.805,251.3,302.398,247.892,298.194,247.892z"/>
	<path style="fill:#231F20;" d="M260.593,277.63h-80.667c-4.205,0-7.612,3.408-7.612,7.612s3.407,7.612,7.612,7.612h80.667
		c4.205,0,7.612-3.408,7.612-7.612S264.798,277.63,260.593,277.63z"/>
	<path style="fill:#231F20;" d="M179.926,203.639h20.166c4.205,0,7.612-3.408,7.612-7.612s-3.407-7.612-7.612-7.612h-20.166
		c-4.205,0-7.612,3.408-7.612,7.612S175.722,203.639,179.926,203.639z"/>
	<path style="fill:#231F20;" d="M423.03,251.62h26.791c4.205,0,7.612-3.408,7.612-7.612V60.411c0-4.204-3.407-7.612-7.612-7.612
		H423.03c-4.205,0-7.612,3.408-7.612,7.612v183.597C415.418,248.212,418.825,251.62,423.03,251.62z M430.642,68.023h11.567v168.373
		h-11.567V68.023z"/>
	<path style="fill:#231F20;" d="M184.882,94.013c1.506,1.762,3.642,2.666,5.791,2.666c1.749,0,3.507-0.6,4.941-1.825
		c3.196-2.731,3.574-7.536,0.842-10.732L161.864,43.64c-2.731-3.194-7.535-3.574-10.732-0.841
		c-3.196,2.731-3.574,7.536-0.842,10.732L184.882,94.013z"/>
	<path style="fill:#231F20;" d="M276.819,94.856c1.434,1.226,3.192,1.825,4.941,1.825c2.15,0,4.286-0.905,5.791-2.666l34.593-40.482
		c2.73-3.196,2.354-8.001-0.842-10.732c-3.197-2.732-8.003-2.354-10.732,0.841l-34.593,40.482
		C273.247,87.319,273.623,92.124,276.819,94.856z"/>
	<path style="fill:#231F20;" d="M238.477,96.68c4.205,0,7.612-3.408,7.612-7.612V31.541c0-4.204-3.407-7.612-7.612-7.612
		s-7.612,3.408-7.612,7.612v57.527C230.865,93.272,234.272,96.68,238.477,96.68z"/>
</g>
</svg>