<?xml version="1.0" encoding="utf-8"?>
<!-- Generator: Adobe Illustrator 24.3.0, SVG Export Plug-In . SVG Version: 6.00 Build 0)  -->
<svg version="1.1" id="Layer_1" xmlns="http://www.w3.org/2000/svg" xmlns:xlink="http://www.w3.org/1999/xlink" x="0px" y="0px"
	 viewBox="0 0 64 64" style="enable-background:new 0 0 64 64;" xml:space="preserve">
<style type="text/css">
	.st0{fill:#F9E109;}
	.st1{fill:#FCBC04;}
	.st2{fill:#4891D3;}
	.st3{fill:#2D72BC;}
	.st4{fill:#E59730;}
	.st5{fill:#A1D51C;}
	.st6{fill:#57B7EB;}
	.st7{fill:#7AB92D;}
	.st8{fill:#C4F236;}
	.st9{fill:#E8E8E8;}
	.st10{fill:#FB3449;}
	.st11{fill:#A4A9AD;}
	.st12{fill:#D1D3D3;}
	.st13{fill:#D1D3D4;}
	.st14{fill:#BCBEC0;}
	.st15{fill:#48AEE2;}
	.st16{fill:#39A3DB;}
	.st17{fill:#1DA49C;}
	.st18{fill:#F2C500;}
	.st19{fill:#65C6BB;}
	.st20{fill:#57BDB7;}
</style>
<path class="st0" d="M55.3,24.9H8.7c-1,0-1.9,0.4-2.6,1.1C5.4,26.7,5,27.6,5,28.6v15.8c0,1,0.4,1.9,1.1,2.6c0.7,0.7,1.6,1.1,2.6,1.1
	h8l3.2-3.7h24.2l3.4,3.7h7.7c1,0,1.9-0.4,2.6-1.1c0.7-0.7,1.1-1.6,1.1-2.6V28.6c0-1-0.4-1.9-1.1-2.6C57.2,25.3,56.3,24.9,55.3,24.9
	L55.3,24.9z"/>
<path class="st1" d="M22.7,38.9c-3,0-5.8-1.2-7.9-3.3c-2.1-2.1-3.3-4.9-3.3-7.9v-2.8H8.7c-1,0-1.9,0.4-2.6,1.1
	C5.4,26.7,5,27.6,5,28.6v15.8c0,1,0.4,1.9,1.1,2.6c0.7,0.7,1.6,1.1,2.6,1.1h8l3.2-3.7h24.2l3.4,3.7h7.7c1,0,1.9-0.4,2.6-1.1
	c0.7-0.7,1.1-1.6,1.1-2.6v-5.6H22.7z"/>
<path class="st2" d="M55.4,56.6H9.6l10.3-12.1h24.3L55.4,56.6z"/>
<path class="st3" d="M56.9,61.5l-4.5-4.9H10l-4.1,4.9H56.9z"/>
<path class="st4" d="M19.9,44.4h24.2l3.4,3.7h3.1v-4.7c0-0.7-0.3-1.5-0.8-2c-0.5-0.5-1.2-0.8-2-0.8H15.2c-0.5,0-1,0.2-1.3,0.5
	c-0.3,0.3-0.5,0.8-0.5,1.3v5.6h3.4L19.9,44.4z"/>
<path class="st2" d="M21.7,2.5h15.8c1.5,0,2.9,0.6,4,1.6c1,1,1.6,2.5,1.6,4v16.8H20.8V3.4c0-0.1,0-0.2,0.1-0.4
	c0-0.1,0.1-0.2,0.2-0.3c0.1-0.1,0.2-0.2,0.3-0.2C21.5,2.5,21.6,2.5,21.7,2.5L21.7,2.5z"/>
<path class="st3" d="M37.6,2.5h-0.9l-0.8,6.3c0,0.1,0,0.3,0,0.4c0,0.1,0.1,0.3,0.2,0.4c0.1,0.1,0.2,0.2,0.4,0.2c0.1,0,0.3,0.1,0.4,0
	L43.2,9V8.1c0-1.5-0.6-2.9-1.6-4C40.5,3.1,39.1,2.5,37.6,2.5L37.6,2.5z"/>
<path class="st3" d="M42.3,22.1c-4.9,0-9.7-2-13.2-5.5c-3.5-3.5-5.5-8.2-5.5-13.2V2.5h-1.9c-0.2,0-0.5,0.1-0.7,0.3
	c-0.2,0.2-0.3,0.4-0.3,0.7v21.4h22.4v-2.8H42.3z"/>
<path class="st1" d="M17.1,8.1h3.7v11.2h-5.6V10c0-0.5,0.2-1,0.5-1.3C16.1,8.3,16.6,8.1,17.1,8.1z"/>
<path class="st4" d="M18,19.3h2.8V8.1L18,19.3z"/>
<path class="st5" d="M11.5,19.3h9.3v5.6H9.6v-3.7c0-0.5,0.2-1,0.5-1.3C10.5,19.5,11,19.3,11.5,19.3z"/>
<path class="st1" d="M43.2,8.1h3.7c0.5,0,1,0.2,1.3,0.5c0.3,0.3,0.5,0.8,0.5,1.3v9.3h-5.6V8.1L43.2,8.1z"/>
<path class="st5" d="M43.2,19.3h9.3c0.5,0,1,0.2,1.3,0.5s0.5,0.8,0.5,1.3v3.7H43.2V19.3z"/>
<path class="st2" d="M53.4,28.6H10.6c-0.5,0-0.9,0.4-0.9,0.9v5.6c0,0.5,0.4,0.9,0.9,0.9h42.9c0.5,0,0.9-0.4,0.9-0.9v-5.6
	C54.4,29,53.9,28.6,53.4,28.6z"/>
<path class="st3" d="M53.4,28.6H10.6c-0.2,0-0.5,0.1-0.7,0.3c-0.2,0.2-0.3,0.4-0.3,0.7v0.9h41.9c0.2,0,0.5,0.1,0.7,0.3
	c0.2,0.2,0.3,0.4,0.3,0.7v4.7h0.9c0.2,0,0.5-0.1,0.7-0.3c0.2-0.2,0.3-0.4,0.3-0.7v-5.6c0-0.2-0.1-0.5-0.3-0.7
	C53.9,28.7,53.7,28.6,53.4,28.6L53.4,28.6z"/>
<path class="st3" d="M11.5,28.6h-1c-0.2,0-0.5,0.1-0.7,0.3c-0.2,0.2-0.3,0.4-0.3,0.7v5.6c0,0.2,0.1,0.5,0.3,0.7
	c0.2,0.2,0.4,0.3,0.7,0.3h4.7C13.1,34.2,11.8,31.5,11.5,28.6L11.5,28.6z"/>
<path class="st5" d="M20.8,33.3h-6.5c-0.2,0-0.5-0.1-0.7-0.3c-0.2-0.2-0.3-0.4-0.3-0.7s0.1-0.5,0.3-0.7s0.4-0.3,0.7-0.3h6.5
	c0.2,0,0.5,0.1,0.7,0.3s0.3,0.4,0.3,0.7s-0.1,0.5-0.3,0.7C21.3,33.2,21.1,33.3,20.8,33.3z"/>
<path class="st5" d="M27.3,33.3h-2.8c-0.2,0-0.5-0.1-0.7-0.3c-0.2-0.2-0.3-0.4-0.3-0.7s0.1-0.5,0.3-0.7s0.4-0.3,0.7-0.3h2.8
	c0.2,0,0.5,0.1,0.7,0.3s0.3,0.4,0.3,0.7S28.2,32.8,28,33C27.8,33.2,27.6,33.3,27.3,33.3z"/>
<path class="st5" d="M43.2,33.3h-3.7c-0.2,0-0.5-0.1-0.7-0.3c-0.2-0.2-0.3-0.4-0.3-0.7s0.1-0.5,0.3-0.7c0.2-0.2,0.4-0.3,0.7-0.3h3.7
	c0.2,0,0.5,0.1,0.7,0.3c0.2,0.2,0.3,0.4,0.3,0.7S44,32.8,43.8,33C43.7,33.2,43.4,33.3,43.2,33.3z"/>
<path class="st5" d="M46.9,33.3c0.5,0,0.9-0.4,0.9-0.9c0-0.5-0.4-0.9-0.9-0.9c-0.5,0-0.9,0.4-0.9,0.9C46,32.8,46.4,33.3,46.9,33.3z"
	/>
<path class="st5" d="M50.6,33.3c0.5,0,0.9-0.4,0.9-0.9c0-0.5-0.4-0.9-0.9-0.9c-0.5,0-0.9,0.4-0.9,0.9C49.7,32.8,50.1,33.3,50.6,33.3
	z"/>
<path class="st6" d="M37.6,2.5c1.5,0,2.9,0.6,4,1.6c1,1,1.6,2.5,1.6,4h-4.7c-0.2,0-0.5-0.1-0.7-0.3c-0.2-0.2-0.3-0.4-0.3-0.7V2.5
	L37.6,2.5z"/>
<path class="st7" d="M16.2,24.9h4.7v-5.6H18L16.2,24.9z"/>
<path class="st0" d="M46.9,8.1H45v3.7c0,1.1,0.4,2.1,1.1,2.9c0.7,0.8,1.6,1.4,2.7,1.6V10c0-0.5-0.2-1-0.5-1.3
	C47.9,8.3,47.4,8.1,46.9,8.1z"/>
<path class="st8" d="M51.6,22.1h2.8v-0.9c0-0.5-0.2-1-0.5-1.3s-0.8-0.5-1.3-0.5h-3.7c0,0.7,0.3,1.5,0.8,2
	C50.1,21.8,50.8,22.1,51.6,22.1L51.6,22.1z"/>
<g>
	<polygon class="st9" points="40.6,46.1 19.8,46.1 19.8,56 46.2,56 46.2,47.7 	"/>
	<path class="st10" d="M41.7,51c-0.4-0.2-1.8-0.3-2.4-0.3c-0.5,0-1,0-1.5,0c-0.4,0-0.8,0-1.2,0c-0.1,0-0.3,0-0.4,0
		c-0.1,0-0.3-0.1-0.4-0.1c-0.9-0.3-1.6-0.6-2.1-1c0.2-0.2,0.3-0.4,0.3-0.5c0.1-0.3,0.2-0.7-0.3-1.1c-0.2-0.1-0.6-0.2-1-0.2
		c-0.5,0.1-0.7,0.3-0.7,0.5c0,0.1,0,0.3,0.1,0.4c0.1,0.1,0.2,0.2,0.3,0.4c0.1,0.1,0.3,0.2,0.4,0.3c-0.1,0.1-0.2,0.2-0.3,0.2
		c-0.2,0.2-0.5,0.4-0.7,0.5c-0.1,0.1-0.3,0.2-0.4,0.2c-0.4,0.3-0.8,0.5-1.3,0.8c-1.1,0.1-2.1,0.3-3,0.4c-0.5,0.1-0.9,0.2-1.2,0.3
		c-0.3,0.1-0.6,0.2-0.7,0.4c0,0.1,0.1,0.2,0.3,0.2c0.3,0.1,0.7,0.1,1,0c1.1-0.1,2-0.4,2.8-0.6c0.5-0.2,1.1-0.4,1.7-0.6c0,0,0,0,0,0
		c1-0.1,2.2-0.2,3.4-0.2c0.6,0,1.1,0,1.7-0.1c0.4,0.1,0.8,0.2,1.3,0.3c0.4,0.1,0.8,0.1,1.2,0.2c0.4,0,0.8,0.1,1.3,0.1
		c0.2,0,0.4,0,0.7,0c0.5,0,1.3-0.1,1.3-0.2C41.8,51.1,41.8,51,41.7,51z M29.4,51.3c-0.2,0.1-0.5,0.2-0.7,0.3c-0.5,0.2-1.2,0.5-2,0.6
		c-0.2,0-0.4,0-0.6,0c-0.2,0-0.4,0-0.4-0.1c0,0,0.1-0.1,0.2-0.1c0.1-0.1,0.2-0.1,0.4-0.1c0.3-0.1,0.7-0.2,1.1-0.3
		c0.7-0.1,1.4-0.2,2.3-0.3C29.5,51.3,29.4,51.3,29.4,51.3z M32.4,48.6c-0.1-0.1-0.1-0.2,0-0.3c0-0.1,0.1-0.1,0.1-0.2
		c0,0,0.2-0.2,0.3-0.2c0.3,0,0.4,0.1,0.4,0.2c0.2,0.3,0,0.6-0.2,0.9c0,0-0.1,0.1-0.1,0.1c-0.1-0.1-0.1-0.1-0.2-0.2
		C32.6,48.8,32.5,48.7,32.4,48.6z M34.3,50.7c-1,0-2,0.1-2.9,0.2c0.1,0,0.6-0.3,0.7-0.3c0.5-0.3,1-0.6,1.3-0.9
		c0.5,0.3,1.2,0.6,2,0.9c0.1,0,0.2,0,0.2,0.1C35.2,50.7,34.7,50.7,34.3,50.7z M41.1,51.1c0,0.1-0.5,0.1-0.7,0.1
		c-0.6,0-1.2,0-1.8-0.1c-0.4,0-0.8-0.1-1.1-0.2c-0.4-0.1-0.7-0.1-1-0.2c0.4,0,0.8,0,1.2,0c0.4,0,0.8,0,1.2,0c0.7,0,1.5,0.1,2.1,0.2
		C41.1,51.1,41.2,51.1,41.1,51.1z"/>
	<polygon class="st10" points="41.5,46.9 19.8,46.9 19.8,46.1 40.6,46.1 	"/>
	<g>
		<path class="st11" d="M30.2,54c0,0.2-0.2,0.3-0.5,0.4c-0.4,0.1-0.9,0.1-1.5,0.1h-0.4V55h-1.4v-1.6h1.8c0.7,0,1.2,0,1.5,0.1
			C30.1,53.7,30.2,53.8,30.2,54z M27.8,54.2h0.3c0.2,0,0.4,0,0.5-0.1c0.1,0,0.2-0.1,0.2-0.1c0-0.1-0.2-0.2-0.6-0.2h-0.4
			C27.8,53.8,27.8,54.2,27.8,54.2z"/>
		<path class="st11" d="M35.6,54.2c0,0.3-0.2,0.5-0.7,0.6C34.4,55,33.7,55,32.8,55h-1.7v-1.6h1.8c0.9,0,1.5,0.1,2,0.2
			C35.4,53.8,35.6,54,35.6,54.2z M34.1,54.2c0-0.1-0.1-0.3-0.3-0.3c-0.2-0.1-0.5-0.1-0.9-0.1h-0.4v0.9h0.3c0.4,0,0.8,0,1-0.1
			C34,54.5,34.1,54.4,34.1,54.2z"/>
		<path class="st11" d="M38,55h-1.4v-1.6h3.2v0.3H38v0.3h1.6v0.3H38V55L38,55z"/>
	</g>
	<polygon class="st12" points="40.6,47.7 46.2,47.7 40.6,46.1 	"/>
</g>
<path class="st13" d="M30.9,92.6H16c-0.4,0-0.8-0.3-0.8-0.7V77.7c0-0.4,0.3-0.7,0.8-0.7h14.9c0.4,0,0.8,0.3,0.8,0.7v14.2
	C31.7,92.2,31.3,92.6,30.9,92.6z"/>
<path class="st14" d="M30.9,76.9h-7.5v15.6h7.5c0.4,0,0.8-0.3,0.8-0.7V77.7C31.7,77.3,31.3,76.9,30.9,76.9z"/>
<path class="st15" d="M27.7,89.6c-0.3,0-0.5-0.1-0.7-0.4l-2-3.3l-0.9,1.5c-0.1,0.2-0.4,0.4-0.7,0.4c-0.3,0-0.5-0.1-0.7-0.4l-0.4-0.7
	l-1.5,2.5c-0.1,0.2-0.4,0.4-0.7,0.4h-1c-0.4,0-0.8-0.3-0.8-0.7v-8.2c0-0.4,0.3-0.7,0.8-0.7h8.6c0.4,0,0.8,0.3,0.8,0.7v8.2
	c0,0.3-0.2,0.6-0.6,0.7C27.9,89.6,27.8,89.6,27.7,89.6z"/>
<path class="st16" d="M27.7,79.9h-4.3v7.8c0,0,0,0,0,0c0.3,0,0.5-0.1,0.7-0.4l0.9-1.5l2,3.3c0.1,0.2,0.4,0.4,0.7,0.4
	c0.1,0,0.1,0,0.2,0c0.3-0.1,0.6-0.4,0.6-0.7v-8.2C28.5,80.3,28.2,79.9,27.7,79.9z"/>
<path class="st17" d="M28.4,88.5l-2.7-4.4c-0.3-0.5-1-0.5-1.3,0l-1,1.6v2.8l0.5,0.8c0.1,0.2,0.4,0.4,0.7,0.4h3.2
	C28.3,89.6,28.7,89,28.4,88.5z"/>
<path class="st18" d="M20.6,84.6c-1.2,0-2.2-0.8-2.2-1.4v-2.4c0-0.4,0.5-1,1-1h2.5c0.5,0,1.5,0.9,1.5,2.1
	C23.3,83.5,22.1,84.6,20.6,84.6z"/>
<path class="st19" d="M24.6,89.6h-4.4c-0.6,0-1-0.6-0.7-1.1l2.2-3.6c0.3-0.5,1-0.5,1.3,0l2.2,3.6C25.5,89,25.2,89.6,24.6,89.6z"/>
<path class="st13" d="M25.4,83.2h-0.9c-0.4,0-0.8-0.3-0.8-0.7s0.3-0.7,0.8-0.7h0.9c0.4,0,0.8,0.3,0.8,0.7
	C26.1,82.9,25.8,83.2,25.4,83.2z"/>
<path class="st20" d="M25.2,88.5l-1.8-3v4.1h1.1C25.2,89.6,25.5,89,25.2,88.5z"/>
</svg>
